<mxfile host="app.diagrams.net" agent="Mozilla/5.0 (Windows NT 10.0; Win64; x64) AppleWebKit/537.36 (KHTML, like Gecko) Chrome/129.0.0.0 Safari/537.36" version="24.7.16">
  <diagram name="Page-1" id="FeNSiu1vrpdzJU6li4sQ">
    <mxGraphModel dx="880" dy="460" grid="1" gridSize="10" guides="1" tooltips="1" connect="1" arrows="1" fold="1" page="1" pageScale="1" pageWidth="850" pageHeight="1100" math="0" shadow="0">
      <root>
        <mxCell id="0" />
        <mxCell id="1" parent="0" />
        <mxCell id="SyvcPrhUcTAlDS3E91bm-1" value="&lt;h1 style=&quot;margin-top: 0px;&quot;&gt;Pre-registration process (regular advisers) in portal system&amp;nbsp;&amp;nbsp;&lt;/h1&gt;" style="text;html=1;whiteSpace=wrap;overflow=hidden;rounded=0;align=center;" vertex="1" parent="1">
          <mxGeometry x="135" y="20" width="580" height="70" as="geometry" />
        </mxCell>
        <mxCell id="SyvcPrhUcTAlDS3E91bm-10" style="edgeStyle=orthogonalEdgeStyle;rounded=0;orthogonalLoop=1;jettySize=auto;html=1;exitX=0.5;exitY=1;exitDx=0;exitDy=0;entryX=0.5;entryY=0;entryDx=0;entryDy=0;" edge="1" parent="1" source="SyvcPrhUcTAlDS3E91bm-2" target="SyvcPrhUcTAlDS3E91bm-4">
          <mxGeometry relative="1" as="geometry" />
        </mxCell>
        <mxCell id="SyvcPrhUcTAlDS3E91bm-2" value="" style="ellipse;whiteSpace=wrap;html=1;" vertex="1" parent="1">
          <mxGeometry x="320" y="120" width="140" height="80" as="geometry" />
        </mxCell>
        <mxCell id="SyvcPrhUcTAlDS3E91bm-3" value="Login to the system as adviser" style="text;html=1;align=center;verticalAlign=middle;whiteSpace=wrap;rounded=0;" vertex="1" parent="1">
          <mxGeometry x="340" y="145" width="100" height="30" as="geometry" />
        </mxCell>
        <mxCell id="SyvcPrhUcTAlDS3E91bm-11" style="edgeStyle=orthogonalEdgeStyle;rounded=0;orthogonalLoop=1;jettySize=auto;html=1;exitX=0.5;exitY=1;exitDx=0;exitDy=0;entryX=0.5;entryY=0;entryDx=0;entryDy=0;" edge="1" parent="1" source="SyvcPrhUcTAlDS3E91bm-4" target="SyvcPrhUcTAlDS3E91bm-8">
          <mxGeometry relative="1" as="geometry" />
        </mxCell>
        <mxCell id="SyvcPrhUcTAlDS3E91bm-14" value="Yes" style="edgeLabel;html=1;align=center;verticalAlign=middle;resizable=0;points=[];" vertex="1" connectable="0" parent="SyvcPrhUcTAlDS3E91bm-11">
          <mxGeometry x="-0.32" y="1" relative="1" as="geometry">
            <mxPoint as="offset" />
          </mxGeometry>
        </mxCell>
        <mxCell id="SyvcPrhUcTAlDS3E91bm-12" style="edgeStyle=orthogonalEdgeStyle;rounded=0;orthogonalLoop=1;jettySize=auto;html=1;exitX=1;exitY=0.5;exitDx=0;exitDy=0;entryX=0;entryY=0.5;entryDx=0;entryDy=0;" edge="1" parent="1" source="SyvcPrhUcTAlDS3E91bm-4" target="SyvcPrhUcTAlDS3E91bm-7">
          <mxGeometry relative="1" as="geometry" />
        </mxCell>
        <mxCell id="SyvcPrhUcTAlDS3E91bm-13" value="No" style="edgeLabel;html=1;align=center;verticalAlign=middle;resizable=0;points=[];" vertex="1" connectable="0" parent="SyvcPrhUcTAlDS3E91bm-12">
          <mxGeometry x="-0.2267" y="-1" relative="1" as="geometry">
            <mxPoint as="offset" />
          </mxGeometry>
        </mxCell>
        <mxCell id="SyvcPrhUcTAlDS3E91bm-4" value="" style="rhombus;whiteSpace=wrap;html=1;" vertex="1" parent="1">
          <mxGeometry x="335" y="230" width="110" height="100" as="geometry" />
        </mxCell>
        <mxCell id="SyvcPrhUcTAlDS3E91bm-5" value="Are login credentials valid?" style="text;html=1;align=center;verticalAlign=middle;whiteSpace=wrap;rounded=0;" vertex="1" parent="1">
          <mxGeometry x="360" y="265" width="60" height="30" as="geometry" />
        </mxCell>
        <mxCell id="SyvcPrhUcTAlDS3E91bm-6" value="" style="rounded=0;whiteSpace=wrap;html=1;" vertex="1" parent="1">
          <mxGeometry x="520" y="245" width="140" height="70" as="geometry" />
        </mxCell>
        <mxCell id="SyvcPrhUcTAlDS3E91bm-7" value="Show error message:&lt;div&gt;&quot;Incorrect username/password&quot;&lt;/div&gt;" style="text;html=1;align=center;verticalAlign=middle;whiteSpace=wrap;rounded=0;" vertex="1" parent="1">
          <mxGeometry x="520" y="260" width="140" height="40" as="geometry" />
        </mxCell>
        <mxCell id="SyvcPrhUcTAlDS3E91bm-29" style="edgeStyle=orthogonalEdgeStyle;rounded=0;orthogonalLoop=1;jettySize=auto;html=1;exitX=0.5;exitY=1;exitDx=0;exitDy=0;entryX=0.5;entryY=0;entryDx=0;entryDy=0;" edge="1" parent="1" source="SyvcPrhUcTAlDS3E91bm-8" target="SyvcPrhUcTAlDS3E91bm-15">
          <mxGeometry relative="1" as="geometry" />
        </mxCell>
        <mxCell id="SyvcPrhUcTAlDS3E91bm-8" value="" style="rounded=0;whiteSpace=wrap;html=1;" vertex="1" parent="1">
          <mxGeometry x="320" y="380" width="140" height="70" as="geometry" />
        </mxCell>
        <mxCell id="SyvcPrhUcTAlDS3E91bm-9" value="View Students&#39; Pre-registration forms" style="text;html=1;align=center;verticalAlign=middle;whiteSpace=wrap;rounded=0;" vertex="1" parent="1">
          <mxGeometry x="320" y="395" width="140" height="40" as="geometry" />
        </mxCell>
        <mxCell id="SyvcPrhUcTAlDS3E91bm-25" style="edgeStyle=orthogonalEdgeStyle;rounded=0;orthogonalLoop=1;jettySize=auto;html=1;exitX=0.5;exitY=1;exitDx=0;exitDy=0;entryX=0.5;entryY=0;entryDx=0;entryDy=0;" edge="1" parent="1" source="SyvcPrhUcTAlDS3E91bm-15" target="SyvcPrhUcTAlDS3E91bm-17">
          <mxGeometry relative="1" as="geometry" />
        </mxCell>
        <mxCell id="SyvcPrhUcTAlDS3E91bm-15" value="" style="rounded=0;whiteSpace=wrap;html=1;" vertex="1" parent="1">
          <mxGeometry x="320" y="490" width="140" height="70" as="geometry" />
        </mxCell>
        <mxCell id="SyvcPrhUcTAlDS3E91bm-16" value="Review each pre-registration form" style="text;html=1;align=center;verticalAlign=middle;whiteSpace=wrap;rounded=0;" vertex="1" parent="1">
          <mxGeometry x="320" y="505" width="140" height="40" as="geometry" />
        </mxCell>
        <mxCell id="SyvcPrhUcTAlDS3E91bm-26" style="edgeStyle=orthogonalEdgeStyle;rounded=0;orthogonalLoop=1;jettySize=auto;html=1;exitX=1;exitY=0.5;exitDx=0;exitDy=0;entryX=0;entryY=0.5;entryDx=0;entryDy=0;" edge="1" parent="1" source="SyvcPrhUcTAlDS3E91bm-17" target="SyvcPrhUcTAlDS3E91bm-20">
          <mxGeometry relative="1" as="geometry" />
        </mxCell>
        <mxCell id="SyvcPrhUcTAlDS3E91bm-30" value="No" style="edgeLabel;html=1;align=center;verticalAlign=middle;resizable=0;points=[];" vertex="1" connectable="0" parent="SyvcPrhUcTAlDS3E91bm-26">
          <mxGeometry x="-0.0526" y="-2" relative="1" as="geometry">
            <mxPoint as="offset" />
          </mxGeometry>
        </mxCell>
        <mxCell id="SyvcPrhUcTAlDS3E91bm-27" style="edgeStyle=orthogonalEdgeStyle;rounded=0;orthogonalLoop=1;jettySize=auto;html=1;exitX=0.5;exitY=1;exitDx=0;exitDy=0;entryX=0.5;entryY=0;entryDx=0;entryDy=0;" edge="1" parent="1" source="SyvcPrhUcTAlDS3E91bm-17" target="SyvcPrhUcTAlDS3E91bm-23">
          <mxGeometry relative="1" as="geometry" />
        </mxCell>
        <mxCell id="SyvcPrhUcTAlDS3E91bm-32" value="Yes" style="edgeLabel;html=1;align=center;verticalAlign=middle;resizable=0;points=[];" vertex="1" connectable="0" parent="SyvcPrhUcTAlDS3E91bm-27">
          <mxGeometry x="-0.2286" y="1" relative="1" as="geometry">
            <mxPoint as="offset" />
          </mxGeometry>
        </mxCell>
        <mxCell id="SyvcPrhUcTAlDS3E91bm-17" value="" style="rhombus;whiteSpace=wrap;html=1;" vertex="1" parent="1">
          <mxGeometry x="335" y="600" width="110" height="100" as="geometry" />
        </mxCell>
        <mxCell id="SyvcPrhUcTAlDS3E91bm-18" value="are all subjects suitable?" style="text;html=1;align=center;verticalAlign=middle;whiteSpace=wrap;rounded=0;" vertex="1" parent="1">
          <mxGeometry x="360" y="635" width="60" height="30" as="geometry" />
        </mxCell>
        <mxCell id="SyvcPrhUcTAlDS3E91bm-33" style="edgeStyle=orthogonalEdgeStyle;rounded=0;orthogonalLoop=1;jettySize=auto;html=1;exitX=0.5;exitY=0;exitDx=0;exitDy=0;" edge="1" parent="1" source="SyvcPrhUcTAlDS3E91bm-19">
          <mxGeometry relative="1" as="geometry">
            <mxPoint x="390" y="580" as="targetPoint" />
            <Array as="points">
              <mxPoint x="610" y="600" />
              <mxPoint x="610" y="600" />
            </Array>
          </mxGeometry>
        </mxCell>
        <mxCell id="SyvcPrhUcTAlDS3E91bm-19" value="" style="rounded=0;whiteSpace=wrap;html=1;" vertex="1" parent="1">
          <mxGeometry x="540" y="615" width="140" height="70" as="geometry" />
        </mxCell>
        <mxCell id="SyvcPrhUcTAlDS3E91bm-20" value="Remove or&amp;nbsp;&lt;div&gt;add subjects&lt;/div&gt;" style="text;html=1;align=center;verticalAlign=middle;whiteSpace=wrap;rounded=0;" vertex="1" parent="1">
          <mxGeometry x="540" y="630" width="140" height="40" as="geometry" />
        </mxCell>
        <mxCell id="SyvcPrhUcTAlDS3E91bm-23" value="" style="ellipse;whiteSpace=wrap;html=1;" vertex="1" parent="1">
          <mxGeometry x="320" y="770" width="140" height="80" as="geometry" />
        </mxCell>
        <mxCell id="SyvcPrhUcTAlDS3E91bm-24" value="Approve pre-registration form" style="text;html=1;align=center;verticalAlign=middle;whiteSpace=wrap;rounded=0;" vertex="1" parent="1">
          <mxGeometry x="340" y="795" width="100" height="30" as="geometry" />
        </mxCell>
      </root>
    </mxGraphModel>
  </diagram>
</mxfile>
